<svg width="17" height="13" viewBox="0 0 17 13" fill="none" xmlns="http://www.w3.org/2000/svg">
<mask id="mask0_4_98" style="mask-type:alpha" maskUnits="userSpaceOnUse" x="0" y="0" width="17" height="13">
<path d="M0 0H17V12.75H0V0Z" fill="white"/>
</mask>
<g mask="url(#mask0_4_98)">
<path fill-rule="evenodd" clip-rule="evenodd" d="M0 0H17V12.75H0V0Z" fill="#F7FCFF"/>
<path fill-rule="evenodd" clip-rule="evenodd" d="M0 7.79163V8.85413H17V7.79163H0Z" fill="#E31D1C"/>
<path fill-rule="evenodd" clip-rule="evenodd" d="M0 9.73956V10.8021H17V9.73956H0Z" fill="#E31D1C"/>
<path fill-rule="evenodd" clip-rule="evenodd" d="M0 3.89575V4.95825H17V3.89575H0Z" fill="#E31D1C"/>
<path fill-rule="evenodd" clip-rule="evenodd" d="M0 11.6875V12.75H17V11.6875H0Z" fill="#E31D1C"/>
<path fill-rule="evenodd" clip-rule="evenodd" d="M0 5.84375V6.90625H17V5.84375H0Z" fill="#E31D1C"/>
<path fill-rule="evenodd" clip-rule="evenodd" d="M0 0V1.0625H17V0H0Z" fill="#E31D1C"/>
<path fill-rule="evenodd" clip-rule="evenodd" d="M0 1.94794V3.01044H17V1.94794H0Z" fill="#E31D1C"/>
<path d="M0 0H10.625V6.90625H0V0Z" fill="#2E42A5"/>
<path fill-rule="evenodd" clip-rule="evenodd" d="M0.914834 1.56118L0.529209 1.83152L0.659399 1.35041L0.316895 1.04552H0.764252L0.914293 0.652893L1.09023 1.04552H1.47159L1.17194 1.35041L1.28795 1.83152L0.914834 1.56118ZM3.03983 1.56118L2.65421 1.83152L2.7844 1.35041L2.4419 1.04552H2.88925L3.03929 0.652893L3.21523 1.04552H3.59659L3.29694 1.35041L3.41295 1.83152L3.03983 1.56118ZM4.77921 1.83152L5.16483 1.56118L5.53795 1.83152L5.42192 1.35041L5.7216 1.04552H5.34022L5.16429 0.652893L5.01425 1.04552H4.5669L4.9094 1.35041L4.77921 1.83152ZM7.28985 1.56118L6.90422 1.83152L7.03443 1.35041L6.69188 1.04552H7.13924L7.28932 0.652893L7.46522 1.04552H7.8466L7.54692 1.35041L7.66295 1.83152L7.28985 1.56118ZM0.529209 3.95652L0.914834 3.68618L1.28795 3.95652L1.17194 3.47541L1.47159 3.17052H1.09023L0.914293 2.77789L0.764252 3.17052H0.316895L0.659399 3.47541L0.529209 3.95652ZM3.03983 3.68618L2.65421 3.95652L2.7844 3.47541L2.4419 3.17052H2.88925L3.03929 2.77789L3.21523 3.17052H3.59659L3.29694 3.47541L3.41295 3.95652L3.03983 3.68618ZM4.77921 3.95652L5.16483 3.68618L5.53795 3.95652L5.42192 3.47541L5.7216 3.17052H5.34022L5.16429 2.77789L5.01425 3.17052H4.5669L4.9094 3.47541L4.77921 3.95652ZM7.28985 3.68618L6.90422 3.95652L7.03443 3.47541L6.69188 3.17052H7.13924L7.28932 2.77789L7.46522 3.17052H7.8466L7.54692 3.47541L7.66295 3.95652L7.28985 3.68618ZM0.529209 6.08152L0.914834 5.81117L1.28795 6.08152L1.17194 5.60042L1.47159 5.29552H1.09023L0.914293 4.90289L0.764252 5.29552H0.316895L0.659399 5.60042L0.529209 6.08152ZM3.03983 5.81117L2.65421 6.08152L2.7844 5.60042L2.4419 5.29552H2.88925L3.03929 4.90289L3.21523 5.29552H3.59659L3.29694 5.60042L3.41295 6.08152L3.03983 5.81117ZM4.77921 6.08152L5.16483 5.81117L5.53795 6.08152L5.42192 5.60042L5.7216 5.29552H5.34022L5.16429 4.90289L5.01425 5.29552H4.5669L4.9094 5.60042L4.77921 6.08152ZM7.28985 5.81117L6.90422 6.08152L7.03443 5.60042L6.69188 5.29552H7.13924L7.28932 4.90289L7.46522 5.29552H7.8466L7.54692 5.60042L7.66295 6.08152L7.28985 5.81117ZM9.02922 1.83152L9.41485 1.56118L9.78795 1.83152L9.67192 1.35041L9.9716 1.04552H9.59022L9.41432 0.652893L9.26424 1.04552H8.81688L9.15943 1.35041L9.02922 1.83152ZM9.41485 3.68618L9.02922 3.95652L9.15943 3.47541L8.81688 3.17052H9.26424L9.41432 2.77789L9.59022 3.17052H9.9716L9.67192 3.47541L9.78795 3.95652L9.41485 3.68618ZM9.02922 6.08152L9.41485 5.81117L9.78795 6.08152L9.67192 5.60042L9.9716 5.29552H9.59022L9.41432 4.90289L9.26424 5.29552H8.81688L9.15943 5.60042L9.02922 6.08152ZM1.97733 2.62368L1.59171 2.89402L1.7219 2.41291L1.3794 2.10802H1.82675L1.97679 1.71539L2.15273 2.10802H2.53409L2.23444 2.41291L2.35045 2.89402L1.97733 2.62368ZM3.71671 2.89402L4.10233 2.62368L4.47545 2.89402L4.35944 2.41291L4.65909 2.10802H4.27773L4.10179 1.71539L3.95175 2.10802H3.5044L3.8469 2.41291L3.71671 2.89402ZM6.22735 2.62368L5.84172 2.89402L5.97193 2.41291L5.62938 2.10802H6.07674L6.22682 1.71539L6.40272 2.10802H6.7841L6.48442 2.41291L6.60045 2.89402L6.22735 2.62368ZM1.59171 5.01902L1.97733 4.74868L2.35045 5.01902L2.23444 4.53791L2.53409 4.23302H2.15273L1.97679 3.84039L1.82675 4.23302H1.3794L1.7219 4.53791L1.59171 5.01902ZM4.10233 4.74868L3.71671 5.01902L3.8469 4.53791L3.5044 4.23302H3.95175L4.10179 3.84039L4.27773 4.23302H4.65909L4.35944 4.53791L4.47545 5.01902L4.10233 4.74868ZM5.84172 5.01902L6.22735 4.74868L6.60045 5.01902L6.48442 4.53791L6.7841 4.23302H6.40272L6.22682 3.84039L6.07674 4.23302H5.62938L5.97193 4.53791L5.84172 5.01902ZM8.35235 2.62368L7.96672 2.89402L8.09693 2.41291L7.75438 2.10802H8.20174L8.35182 1.71539L8.52772 2.10802H8.9091L8.60942 2.41291L8.72545 2.89402L8.35235 2.62368ZM7.96672 5.01902L8.35235 4.74868L8.72545 5.01902L8.60942 4.53791L8.9091 4.23302H8.52772L8.35182 3.84039L8.20174 4.23302H7.75438L8.09693 4.53791L7.96672 5.01902Z" fill="#F7FCFF"/>
</g>
</svg>
