<svg width="28" height="21" viewBox="0 0 28 21" fill="none" xmlns="http://www.w3.org/2000/svg">
<path d="M24.106 3.49455L24.1062 3.49496L26.9761 10.1915C26.9761 10.1915 26.9761 10.1916 26.9761 10.1916C27.0209 10.2966 27.044 10.4095 27.0442 10.5236V17.2202C27.0442 17.4461 26.9545 17.6627 26.7948 17.8224C26.6351 17.9821 26.4184 18.0718 26.1926 18.0718H24.1453H24.065L24.044 18.1493C23.8297 18.9377 23.3619 19.6337 22.7129 20.1299C22.0638 20.6262 21.2695 20.895 20.4525 20.895C19.6355 20.895 18.8412 20.6262 18.1921 20.1299C17.5431 19.6337 17.0753 18.9377 16.8611 18.1493L16.84 18.0718H16.7597H10.7518H10.6715L10.6505 18.1493C10.4362 18.9377 9.96848 19.6337 9.31942 20.1299C8.67036 20.6262 7.87605 20.895 7.05904 20.895C6.24203 20.895 5.44772 20.6262 4.79866 20.1299C4.1496 19.6337 3.68185 18.9377 3.46759 18.1493L3.44654 18.0718H3.36627H1.31898C1.0931 18.0718 0.876475 17.9821 0.716755 17.8224C0.557035 17.6627 0.467305 17.4461 0.467305 17.2202V0.956676C0.467305 0.730798 0.557035 0.514171 0.716755 0.35445C0.876475 0.19473 1.0931 0.105 1.31898 0.105H19.4958C19.7217 0.105 19.9383 0.19473 20.0981 0.35445C20.2578 0.51417 20.3475 0.730798 20.3475 0.956676V2.87003V2.97503H20.4525H23.3224C23.4896 2.97516 23.6531 3.0245 23.7924 3.11688C23.9317 3.20927 24.0408 3.34061 24.106 3.49455ZM20.4525 4.67838H20.3475V4.78338V9.56676V9.67176H20.4525H24.7384H24.8976L24.8349 9.52545L22.7877 4.74207L22.7604 4.67838H22.6911H20.4525ZM16.7597 16.3685H16.8406L16.8613 16.2903C16.9861 15.8166 17.2033 15.3722 17.5002 14.9826C17.7972 14.593 18.1682 14.2659 18.5919 14.02L18.6442 13.9897V13.9292V1.91335V1.80835H18.5392H2.27566H2.17066V1.91335V16.2635V16.3685H2.27566H3.36627H3.44654L3.46759 16.291C3.68185 15.5026 4.1496 14.8066 4.79866 14.3104C5.44772 13.8142 6.24203 13.5453 7.05904 13.5453C7.87605 13.5453 8.67036 13.8142 9.31942 14.3104C9.96848 14.8066 10.4362 15.5026 10.6505 16.291L10.6715 16.3685H10.7518H16.7597ZM25.2359 16.3685H25.3409V16.2635V11.4801V11.3751H25.2359H20.4525H20.3475V11.4801V13.3935V13.4981L20.4522 13.4985C21.2752 13.5011 22.0741 13.7765 22.7239 14.2816C23.3738 14.7866 23.8379 15.4929 24.0436 16.2897L24.0639 16.3685H24.1453H25.2359ZM5.9377 18.8984C6.26962 19.1202 6.65985 19.2385 7.05904 19.2385C7.59434 19.2385 8.10771 19.0259 8.48623 18.6474C8.86474 18.2688 9.07739 17.7555 9.07739 17.2202C9.07739 16.821 8.95902 16.4308 8.73724 16.0988C8.51546 15.7669 8.20023 15.5082 7.83143 15.3555C7.46262 15.2027 7.0568 15.1627 6.66528 15.2406C6.27376 15.3185 5.91412 15.5107 5.63185 15.793C5.34958 16.0753 5.15735 16.4349 5.07947 16.8264C5.00159 17.2179 5.04156 17.6238 5.19432 17.9926C5.34709 18.3614 5.60579 18.6766 5.9377 18.8984ZM19.3312 18.8984C19.6631 19.1202 20.0533 19.2385 20.4525 19.2385C20.9878 19.2385 21.5012 19.0259 21.8797 18.6474C22.2582 18.2688 22.4709 17.7555 22.4709 17.2202C22.4709 16.821 22.3525 16.4308 22.1307 16.0988C21.9089 15.7669 21.5937 15.5082 21.2249 15.3555C20.8561 15.2027 20.4503 15.1627 20.0587 15.2406C19.6672 15.3185 19.3076 15.5107 19.0253 15.793C18.743 16.0753 18.5508 16.4349 18.4729 16.8264C18.3951 17.2179 18.435 17.6238 18.5878 17.9926C18.7406 18.3614 18.9993 18.6766 19.3312 18.8984Z" fill="black" stroke="white" stroke-width="0.21"/>
</svg>
