<svg width="48" height="48" viewBox="0 0 48 48" fill="none" xmlns="http://www.w3.org/2000/svg">
<g clip-path="url(#clip0_271_6)">
<path d="M48 24C48 10.7449 37.2551 0 24 0C10.7449 0 0 10.7449 0 24C0 35.9787 8.77511 45.9093 20.2489 47.7084V30.9369H14.1547V24H20.2489V18.7129C20.2489 12.6969 23.8329 9.376 29.3156 9.376C31.9431 9.376 34.688 9.84533 34.688 9.84533V15.7511H31.6622C28.6791 15.7511 27.7511 17.6 27.7511 19.4987V24H34.4071L33.344 30.9369H27.7511V47.7084C39.2249 45.9093 48 35.9787 48 24Z" fill="#4676ED"/>
<path d="M33.3401 30.9369L34.4032 24H27.7507V19.4986C27.7507 17.6 28.6787 15.7511 31.6619 15.7511H34.6876V9.84531C34.6876 9.84531 31.9427 9.37598 29.3152 9.37598C23.8325 9.37598 20.2485 12.6969 20.2485 18.7129V24H14.1543V30.9369H20.2485V47.7084C21.4716 47.9004 22.7232 48 23.9996 48C25.2761 48 26.5276 47.9004 27.7507 47.7084V30.9369H33.3401Z" fill="white"/>
</g>
<defs>
<clipPath id="clip0_271_6">
<rect width="48" height="48" fill="white"/>
</clipPath>
</defs>
</svg>
