<svg width="18" height="17" viewBox="0 0 18 17" fill="none" xmlns="http://www.w3.org/2000/svg">
<g id="&#240;&#159;&#166;&#134; icon &#34;instagram fill&#34;">
<path id="Vector" fill-rule="evenodd" clip-rule="evenodd" d="M5.55012 0.311369C6.4252 0.27126 6.70414 0.262146 8.9324 0.262146C11.1611 0.262146 11.4396 0.271715 12.3142 0.311369C13.1879 0.351024 13.7846 0.490035 14.3064 0.69285C14.8537 0.898924 15.3496 1.22181 15.7594 1.63903C16.1767 2.0488 16.4996 2.54466 16.7056 3.09203C16.9084 3.61389 17.0469 4.2105 17.0871 5.08375C17.1272 5.95883 17.1363 6.23777 17.1363 8.46603C17.1363 10.6943 17.1267 10.9732 17.0871 11.8483C17.0474 12.7215 16.9084 13.3182 16.7056 13.84C16.4959 14.3792 16.2151 14.8372 15.7594 15.293C15.3496 15.7103 14.8537 16.0332 14.3064 16.2392C13.7846 16.442 13.1879 16.5806 12.3147 16.6207C11.4396 16.6608 11.1607 16.6699 8.9324 16.6699C6.70414 16.6699 6.4252 16.6604 5.55012 16.6207C4.67687 16.581 4.08026 16.442 3.5584 16.2392C3.01922 16.0296 2.56117 15.7488 2.1054 15.293C1.6881 14.8833 1.3652 14.3874 1.15922 13.84C0.956405 13.3182 0.817848 12.7215 0.777739 11.8483C0.737629 10.9732 0.728516 10.6947 0.728516 8.46603C0.728516 6.23731 0.738084 5.95883 0.777739 5.08421C0.817394 4.2105 0.956405 3.61389 1.15922 3.09203C1.36529 2.5447 1.68818 2.04886 2.1054 1.63903C2.51517 1.22173 3.01102 0.898827 3.5584 0.69285C4.08026 0.490035 4.67687 0.351479 5.55012 0.311369ZM12.2477 1.78807C11.3826 1.74887 11.1228 1.74021 8.9324 1.74021C6.74196 1.74021 6.48218 1.74887 5.61712 1.78807C4.81724 1.82453 4.38289 1.95807 4.09393 2.07065C3.71108 2.21923 3.43762 2.39698 3.15048 2.68411C2.86381 2.97125 2.6856 3.24471 2.53702 3.62756C2.42444 3.91652 2.2909 4.35087 2.25444 5.15075C2.21524 6.01581 2.20658 6.27559 2.20658 8.46603C2.20658 10.6565 2.21524 10.9162 2.25444 11.7813C2.2909 12.5812 2.42444 13.0155 2.53702 13.3045C2.66844 13.6609 2.87808 13.9832 3.15048 14.248C3.41517 14.5203 3.73756 14.73 4.09393 14.8614C4.38289 14.974 4.81724 15.1075 5.61712 15.144C6.48218 15.1832 6.74151 15.1919 8.9324 15.1919C11.1233 15.1919 11.3826 15.1832 12.2477 15.144C13.0475 15.1075 13.4819 14.974 13.7709 14.8614C14.1537 14.7128 14.4272 14.5351 14.7143 14.248C14.9867 13.9833 15.1964 13.6609 15.3278 13.3045C15.4404 13.0155 15.5739 12.5812 15.6104 11.7813C15.6496 10.9162 15.6582 10.6565 15.6582 8.46603C15.6582 6.27559 15.6496 6.01581 15.6104 5.15075C15.5739 4.35087 15.4404 3.91652 15.3278 3.62756C15.1792 3.24471 15.0015 2.97125 14.7143 2.68411C14.4272 2.39744 14.1537 2.21923 13.7709 2.07065C13.4819 1.95807 13.0475 1.82453 12.2477 1.78807ZM7.88491 10.995C8.21702 11.1326 8.57292 11.2034 8.9324 11.2034C9.65844 11.2034 10.3547 10.915 10.868 10.4016C11.3814 9.88829 11.6698 9.192 11.6698 8.46603C11.6698 7.74006 11.3814 7.04378 10.868 6.53042C10.3547 6.01707 9.65844 5.72866 8.9324 5.72866C8.57292 5.72866 8.21702 5.79947 7.88491 5.93703C7.55273 6.0746 7.251 6.27623 6.99681 6.53042C6.74263 6.78461 6.54099 7.08636 6.40343 7.41847C6.26586 7.75058 6.19506 8.10655 6.19506 8.46603C6.19506 8.82551 6.26586 9.18148 6.40343 9.51359C6.54099 9.8457 6.74263 10.1475 6.99681 10.4016C7.251 10.6558 7.55273 10.8575 7.88491 10.995ZM5.9507 5.4843C6.7415 4.6935 7.81406 4.24923 8.9324 4.24923C10.0508 4.24923 11.1234 4.6935 11.9141 5.4843C12.7049 6.2751 13.1492 7.34769 13.1492 8.46603C13.1492 9.58437 12.7049 10.6569 11.9141 11.4478C11.1234 12.2386 10.0508 12.6828 8.9324 12.6828C7.81406 12.6828 6.7415 12.2386 5.9507 11.4478C5.1599 10.6569 4.71563 9.58437 4.71563 8.46603C4.71563 7.34769 5.1599 6.2751 5.9507 5.4843ZM14.0842 4.87749C14.2711 4.69055 14.3761 4.43702 14.3761 4.17266C14.3761 3.9083 14.2711 3.65477 14.0842 3.46784C13.8972 3.28091 13.6437 3.17589 13.3794 3.17589C13.115 3.17589 12.8615 3.28091 12.6746 3.46784C12.4876 3.65477 12.3826 3.9083 12.3826 4.17266C12.3826 4.43702 12.4876 4.69055 12.6746 4.87749C12.8615 5.06442 13.115 5.16943 13.3794 5.16943C13.6437 5.16943 13.8972 5.06442 14.0842 4.87749Z" fill="white"/>
</g>
</svg>
