<svg width="18" height="18" viewBox="0 0 18 18" fill="none" xmlns="http://www.w3.org/2000/svg">
<path d="M10.8915 4.05809C11.6382 4.20378 12.3245 4.56898 12.8625 5.10696C13.4004 5.64494 13.7656 6.33121 13.9113 7.07795M10.8915 1C12.4429 1.17235 13.8896 1.8671 14.9941 2.97018C16.0985 4.07326 16.7951 5.5191 16.9694 7.0703M16.2049 13.1712V15.4648C16.2058 15.6777 16.1621 15.8884 16.0768 16.0835C15.9915 16.2786 15.8664 16.4537 15.7095 16.5977C15.5526 16.7416 15.3674 16.8512 15.1657 16.9194C14.964 16.9876 14.7503 17.013 14.5382 16.9938C12.1857 16.7382 9.92588 15.9343 7.94042 14.6467C6.0932 13.4729 4.52709 11.9068 3.35329 10.0596C2.06123 8.0651 1.25715 5.79431 1.00621 3.43118C0.9871 3.21976 1.01223 3.00669 1.07998 2.80551C1.14774 2.60434 1.25664 2.41948 1.39976 2.2627C1.54287 2.10592 1.71706 1.98066 1.91124 1.89489C2.10542 1.80912 2.31533 1.76472 2.5276 1.76452H4.82117C5.1922 1.76087 5.55189 1.89226 5.83321 2.13419C6.11453 2.37613 6.29828 2.71211 6.35021 3.0795C6.44702 3.81349 6.62655 4.53418 6.88538 5.22781C6.98824 5.50145 7.0105 5.79884 6.94953 6.08474C6.88855 6.37065 6.74689 6.63308 6.54134 6.84095L5.5704 7.81189C6.65874 9.7259 8.24352 11.3107 10.1575 12.399L11.1285 11.4281C11.3363 11.2225 11.5988 11.0809 11.8847 11.0199C12.1706 10.9589 12.468 10.9812 12.7416 11.084C13.4352 11.3429 14.1559 11.5224 14.8899 11.6192C15.2613 11.6716 15.6005 11.8587 15.8429 12.1448C16.0854 12.431 16.2142 12.7962 16.2049 13.1712Z" stroke="black" stroke-width="1.5" stroke-linecap="round" stroke-linejoin="round"/>
</svg>
