<svg width="11" height="15" viewBox="0 0 11 15" fill="none" xmlns="http://www.w3.org/2000/svg">
<path fill-rule="evenodd" clip-rule="evenodd" d="M6.75 0.25C7.16423 0.25 7.5 0.58579 7.5 1C7.5 2.44934 8.53072 3.66173 9.8994 3.93991C10.3053 4.02241 10.5675 4.41835 10.485 4.82427C10.4025 5.23018 10.0065 5.49236 9.6006 5.40986C8.80395 5.24793 8.0835 4.87557 7.5 4.35327V10.75C7.5 12.821 5.82105 14.5 3.75 14.5C1.67894 14.5 0 12.821 0 10.75C0 8.67895 1.67894 7 3.75 7C4.16423 7 4.5 7.33577 4.5 7.75C4.5 8.16423 4.16423 8.5 3.75 8.5C2.50736 8.5 1.5 9.50733 1.5 10.75C1.5 11.9927 2.50736 13 3.75 13C4.99267 13 6 11.9927 6 10.75V1C6 0.58579 6.33577 0.25 6.75 0.25Z" fill="black"/>
</svg>
