<svg width="16" height="18" viewBox="0 0 16 18" fill="none" xmlns="http://www.w3.org/2000/svg">
<g id="&#240;&#159;&#166;&#134; icon &#34;logo tiktok&#34;">
<path id="Vector" d="M14.114 3.9994C13.9961 3.93844 13.8813 3.87162 13.77 3.79918C13.4465 3.58528 13.1498 3.33326 12.8865 3.04852C12.2276 2.29459 11.9815 1.52974 11.8908 0.994234H11.8945C11.8187 0.549739 11.8501 0.262146 11.8548 0.262146H8.85362V11.8671C8.85362 12.0229 8.85362 12.1769 8.84707 12.329C8.84707 12.348 8.84525 12.3654 8.84416 12.3858C8.84416 12.3942 8.84416 12.4029 8.84234 12.4117V12.4182C8.8107 12.8346 8.67723 13.2368 8.45365 13.5895C8.23008 13.9422 7.92326 14.2346 7.56018 14.4408C7.18178 14.6561 6.75379 14.769 6.31844 14.7685C4.92015 14.7685 3.78689 13.6283 3.78689 12.2202C3.78689 10.8121 4.92015 9.6719 6.31844 9.6719C6.58312 9.67165 6.84618 9.7133 7.09785 9.79531L7.10149 6.73954C6.3375 6.64085 5.56135 6.70157 4.822 6.91786C4.08264 7.13415 3.39614 7.50132 2.8058 7.99621C2.28852 8.44566 1.85364 8.98193 1.52073 9.58089C1.39404 9.79931 0.916056 10.677 0.858173 12.1015C0.821769 12.91 1.06458 13.7477 1.18035 14.0939V14.1012C1.25316 14.3051 1.53529 15.0007 1.99508 15.5872C2.36583 16.0576 2.80386 16.4709 3.29507 16.8137V16.8064L3.30235 16.8137C4.75524 17.8009 6.36613 17.7361 6.36613 17.7361C6.64498 17.7249 7.57911 17.7361 8.63993 17.2334C9.81651 16.6761 10.4864 15.8457 10.4864 15.8457C10.9143 15.3495 11.2545 14.7841 11.4926 14.1736C11.7641 13.4598 11.8548 12.6035 11.8548 12.2613V6.10465C11.8912 6.12649 12.3761 6.44721 12.3761 6.44721C12.3761 6.44721 13.0747 6.89499 14.1646 7.18658C14.9466 7.39409 16.0001 7.43777 16.0001 7.43777V4.45845C15.631 4.4985 14.8814 4.38201 14.114 3.9994Z" fill="white"/>
</g>
</svg>
