<svg width="9" height="18" viewBox="0 0 9 18" fill="none" xmlns="http://www.w3.org/2000/svg">
<g id="&#240;&#159;&#166;&#134; icon &#34;social facebook&#34;">
<path id="Vector" d="M1.84628 3.68803C1.84628 4.1336 1.86197 6.31354 1.86197 6.31354H0V9.1065L1.84628 9.10138L1.86197 17.9508H5.58591V9.1065L7.9709 9.10138C7.9709 9.10138 8.15105 7.87485 8.26249 6.31354C7.94251 6.31354 5.58591 6.31354 5.58591 6.31354C5.58591 6.31354 5.52535 4.37947 5.52535 4.07602C5.52535 3.77177 5.92493 3.36237 6.31994 3.36237H8.31681C8.31681 2.95693 8.31681 1.55598 8.31681 0.262146C7.28812 0.262146 6.11792 0.262146 5.60178 0.262146C1.75565 0.262146 1.84628 3.24288 1.84628 3.68803Z" fill="white"/>
</g>
</svg>
