<svg width="22" height="21" viewBox="0 0 22 21" fill="none" xmlns="http://www.w3.org/2000/svg">
<g id="&#240;&#159;&#166;&#134; icon &#34;twitter&#34;">
<path id="Vector" d="M7.60679 17.4574C8.8975 17.5006 10.1838 17.2846 11.3896 16.8222C12.5954 16.3599 13.6963 15.6604 14.6272 14.7653C15.5581 13.8702 16.3001 12.7976 16.8094 11.6109C17.3187 10.4241 17.585 9.14728 17.5924 7.85587C18.1839 7.1239 18.6231 6.28107 18.8843 5.37693C18.9037 5.30549 18.9022 5.22995 18.8797 5.15939C18.8573 5.08882 18.8149 5.02626 18.7577 4.97922C18.7005 4.93218 18.631 4.90267 18.5574 4.89425C18.4838 4.88583 18.4094 4.89886 18.3431 4.93176C18.0336 5.08072 17.6852 5.12884 17.347 5.06933C17.0088 5.00983 16.6977 4.8457 16.4577 4.60007C16.1513 4.26452 15.7806 3.99389 15.3677 3.80422C14.9548 3.61454 14.508 3.50968 14.0538 3.49584C13.5996 3.482 13.1472 3.55947 12.7235 3.72366C12.2998 3.88785 11.9134 4.13541 11.5871 4.45169C11.1403 4.88433 10.8131 5.42519 10.6372 6.02169C10.4613 6.6182 10.4427 7.25006 10.5833 7.85587C7.65917 8.03045 5.65157 6.64259 4.04549 4.73973C3.99724 4.68509 3.93412 4.64568 3.86385 4.62632C3.79357 4.60696 3.71918 4.60848 3.64975 4.63069C3.58033 4.65291 3.51887 4.69486 3.47289 4.75143C3.42691 4.80799 3.3984 4.87672 3.39084 4.94922C3.08487 6.64645 3.30558 8.39666 4.02333 9.96479C4.74108 11.5329 5.9215 12.8439 7.40603 13.7216C6.41065 14.8631 5.01281 15.5761 3.50431 15.7117C3.42349 15.7251 3.34889 15.7634 3.29094 15.8213C3.23299 15.8792 3.19459 15.9538 3.18113 16.0346C3.16766 16.1154 3.17979 16.1984 3.21583 16.272C3.25187 16.3456 3.31001 16.406 3.38211 16.4449C4.69449 17.1007 6.1397 17.4471 7.60679 17.4574Z" fill="white"/>
</g>
</svg>
