<svg width="48" height="48" viewBox="0 0 48 48" fill="none" xmlns="http://www.w3.org/2000/svg">
<g clip-path="url(#clip0_271_45)">
<path d="M24 48C37.2548 48 48 37.2548 48 24C48 10.7452 37.2548 0 24 0C10.7452 0 0 10.7452 0 24C0 37.2548 10.7452 48 24 48Z" fill="url(#paint0_linear_271_45)"/>
<path d="M23.9998 11.6125C28.0353 11.6125 28.5118 11.6267 30.1047 11.7014C31.5767 11.7689 32.3767 12.0142 32.91 12.2205C33.614 12.4942 34.1189 12.8214 34.6487 13.3511C35.1784 13.8809 35.5056 14.3822 35.7793 15.0898C35.9856 15.6231 36.2309 16.4231 36.2984 17.8951C36.3696 19.488 36.3873 19.968 36.3873 24C36.3873 28.032 36.3731 28.512 36.2984 30.1049C36.2309 31.5769 35.9856 32.3769 35.7793 32.9102C35.5056 33.6142 35.1784 34.1191 34.6487 34.6489C34.1189 35.1787 33.6176 35.5058 32.91 35.7796C32.3767 35.9858 31.5767 36.2311 30.1047 36.2987C28.5118 36.3698 28.0353 36.3876 23.9998 36.3876C19.9642 36.3876 19.4878 36.3734 17.8949 36.2987C16.4229 36.2311 15.6229 35.9858 15.0896 35.7796C14.3856 35.5058 13.8807 35.1787 13.3509 34.6489C12.8211 34.1191 12.494 33.6178 12.2202 32.9102C12.014 32.3769 11.7687 31.5769 11.7011 30.1049C11.63 28.512 11.6122 28.032 11.6122 24C11.6122 19.968 11.6264 19.488 11.7011 17.8951C11.7687 16.4231 12.014 15.6231 12.2202 15.0898C12.494 14.3858 12.8211 13.8809 13.3509 13.3511C13.8807 12.8214 14.382 12.4942 15.0896 12.2205C15.6229 12.0142 16.4229 11.7689 17.8949 11.7014C19.4878 11.6267 19.9642 11.6125 23.9998 11.6125ZM23.9998 8.88892C19.8967 8.88892 19.3811 8.90669 17.7704 8.98136C16.1633 9.05603 15.0647 9.30847 14.1011 9.68536C13.1091 10.0729 12.2664 10.5885 11.4238 11.4276C10.5847 12.2667 10.0656 13.1094 9.68156 14.1049C9.30823 15.0649 9.05223 16.1636 8.97756 17.7743C8.90645 19.3814 8.88867 19.8969 8.88867 24C8.88867 28.1031 8.90645 28.6187 8.98112 30.2294C9.05578 31.8365 9.30823 32.9351 9.68512 33.8987C10.0727 34.8907 10.5882 35.7334 11.4273 36.576C12.2664 37.4151 13.1091 37.9342 14.1047 38.3182C15.0647 38.6916 16.1633 38.9476 17.774 39.0222C19.3847 39.0969 19.9002 39.1147 24.0033 39.1147C28.1064 39.1147 28.622 39.0969 30.2327 39.0222C31.8398 38.9476 32.9384 38.6951 33.902 38.3182C34.894 37.9307 35.7367 37.4151 36.5793 36.576C37.4184 35.7369 37.9376 34.8942 38.3216 33.8987C38.6949 32.9387 38.9509 31.84 39.0256 30.2294C39.1002 28.6187 39.118 28.1031 39.118 24C39.118 19.8969 39.1002 19.3814 39.0256 17.7707C38.9509 16.1636 38.6984 15.0649 38.3216 14.1014C37.934 13.1094 37.4184 12.2667 36.5793 11.424C35.7402 10.5849 34.8976 10.0658 33.902 9.6818C32.942 9.30847 31.8433 9.05247 30.2327 8.9778C28.6184 8.90669 28.1029 8.88892 23.9998 8.88892Z" fill="white"/>
<path d="M23.9994 16.2418C19.715 16.2418 16.2412 19.7156 16.2412 24C16.2412 28.2845 19.715 31.7583 23.9994 31.7583C28.2839 31.7583 31.7577 28.2845 31.7577 24C31.7577 19.7156 28.2839 16.2418 23.9994 16.2418ZM23.9994 29.0383C21.219 29.0383 18.9612 26.784 18.9612 24C18.9612 21.216 21.2154 18.9618 23.9994 18.9618C26.7834 18.9618 29.0377 21.216 29.0377 24C29.0377 26.784 26.7799 29.0383 23.9994 29.0383Z" fill="white"/>
<path d="M32.0672 17.7458C33.0687 17.7458 33.8806 16.934 33.8806 15.9325C33.8806 14.931 33.0687 14.1191 32.0672 14.1191C31.0658 14.1191 30.2539 14.931 30.2539 15.9325C30.2539 16.934 31.0658 17.7458 32.0672 17.7458Z" fill="white"/>
</g>
<defs>
<linearGradient id="paint0_linear_271_45" x1="21.1646" y1="-4.27947" x2="26.3391" y2="47.3291" gradientUnits="userSpaceOnUse">
<stop stop-color="#5156D6"/>
<stop offset="0.2542" stop-color="#743CBD"/>
<stop offset="0.5056" stop-color="#B61699"/>
<stop offset="0.7737" stop-color="#E84A54"/>
<stop offset="0.8688" stop-color="#F28C64"/>
<stop offset="0.9574" stop-color="#FBC472"/>
<stop offset="1" stop-color="#FEDA77"/>
</linearGradient>
<clipPath id="clip0_271_45">
<rect width="48" height="48" fill="white"/>
</clipPath>
</defs>
</svg>
