<svg width="18" height="17" viewBox="0 0 18 17" fill="none" xmlns="http://www.w3.org/2000/svg">
<path fill-rule="evenodd" clip-rule="evenodd" d="M5.54981 0.311369C6.4249 0.27126 6.70383 0.262146 8.9321 0.262146C11.1608 0.262146 11.4393 0.271715 12.3139 0.311369C13.1876 0.351024 13.7842 0.490035 14.3061 0.69285C14.8534 0.898924 15.3492 1.22181 15.7591 1.63903C16.1763 2.0488 16.4993 2.54466 16.7053 3.09203C16.9081 3.61389 17.0466 4.2105 17.0868 5.08375C17.1269 5.95883 17.136 6.23777 17.136 8.46603C17.136 10.6943 17.1264 10.9732 17.0868 11.8483C17.0471 12.7215 16.9081 13.3182 16.7053 13.84C16.4956 14.3792 16.2148 14.8372 15.7591 15.293C15.3493 15.7103 14.8534 16.0332 14.3061 16.2392C13.7842 16.442 13.1876 16.5806 12.3144 16.6207C11.4393 16.6608 11.1603 16.6699 8.9321 16.6699C6.70383 16.6699 6.4249 16.6604 5.54981 16.6207C4.67656 16.581 4.07995 16.442 3.5581 16.2392C3.01891 16.0296 2.56087 15.7488 2.1051 15.293C1.6878 14.8833 1.36489 14.3874 1.15891 13.84C0.956099 13.3182 0.817543 12.7215 0.777434 11.8483C0.737324 10.9732 0.72821 10.6947 0.72821 8.46603C0.72821 6.23731 0.737779 5.95883 0.777434 5.08421C0.817088 4.2105 0.956099 3.61389 1.15891 3.09203C1.36499 2.5447 1.68787 2.04886 2.1051 1.63903C2.51486 1.22173 3.01072 0.898827 3.5581 0.69285C4.07995 0.490035 4.67656 0.351479 5.54981 0.311369ZM12.2474 1.78807C11.3823 1.74887 11.1225 1.74021 8.9321 1.74021C6.74166 1.74021 6.48187 1.74887 5.61682 1.78807C4.81694 1.82453 4.38259 1.95807 4.09362 2.07065C3.71078 2.21923 3.43731 2.39698 3.15018 2.68411C2.8635 2.97125 2.68529 3.24471 2.53671 3.62756C2.42413 3.91652 2.2906 4.35087 2.25413 5.15075C2.21493 6.01581 2.20627 6.27559 2.20627 8.46603C2.20627 10.6565 2.21493 10.9162 2.25413 11.7813C2.2906 12.5812 2.42413 13.0155 2.53671 13.3045C2.66814 13.6609 2.87777 13.9832 3.15018 14.248C3.41486 14.5203 3.73725 14.73 4.09362 14.8614C4.38259 14.974 4.81694 15.1075 5.61682 15.144C6.48187 15.1832 6.7412 15.1919 8.9321 15.1919C11.123 15.1919 11.3823 15.1832 12.2474 15.144C13.0472 15.1075 13.4816 14.974 13.7706 14.8614C14.1534 14.7128 14.4269 14.5351 14.714 14.248C14.9864 13.9833 15.1961 13.6609 15.3275 13.3045C15.4401 13.0155 15.5736 12.5812 15.6101 11.7813C15.6493 10.9162 15.6579 10.6565 15.6579 8.46603C15.6579 6.27559 15.6493 6.01581 15.6101 5.15075C15.5736 4.35087 15.4401 3.91652 15.3275 3.62756C15.1789 3.24471 15.0012 2.97125 14.714 2.68411C14.4269 2.39744 14.1534 2.21923 13.7706 2.07065C13.4816 1.95807 13.0472 1.82453 12.2474 1.78807ZM7.88461 10.995C8.21672 11.1326 8.57262 11.2034 8.9321 11.2034C9.65814 11.2034 10.3544 10.915 10.8677 10.4016C11.3811 9.88829 11.6695 9.192 11.6695 8.46603C11.6695 7.74006 11.3811 7.04378 10.8677 6.53042C10.3544 6.01707 9.65814 5.72866 8.9321 5.72866C8.57262 5.72866 8.21672 5.79947 7.88461 5.93703C7.55243 6.0746 7.25069 6.27623 6.99651 6.53042C6.74232 6.78461 6.54069 7.08636 6.40312 7.41847C6.26556 7.75058 6.19476 8.10655 6.19476 8.46603C6.19476 8.82551 6.26556 9.18148 6.40312 9.51359C6.54069 9.8457 6.74232 10.1475 6.99651 10.4016C7.25069 10.6558 7.55243 10.8575 7.88461 10.995ZM5.95039 5.4843C6.7412 4.6935 7.81376 4.24923 8.9321 4.24923C10.0505 4.24923 11.1231 4.6935 11.9138 5.4843C12.7046 6.2751 13.1489 7.34769 13.1489 8.46603C13.1489 9.58437 12.7046 10.6569 11.9138 11.4478C11.1231 12.2386 10.0505 12.6828 8.9321 12.6828C7.81376 12.6828 6.7412 12.2386 5.95039 11.4478C5.15959 10.6569 4.71532 9.58437 4.71532 8.46603C4.71532 7.34769 5.15959 6.2751 5.95039 5.4843ZM14.0839 4.87749C14.2708 4.69055 14.3758 4.43702 14.3758 4.17266C14.3758 3.9083 14.2708 3.65477 14.0839 3.46784C13.8969 3.28091 13.6434 3.17589 13.379 3.17589C13.1147 3.17589 12.8612 3.28091 12.6743 3.46784C12.4873 3.65477 12.3823 3.9083 12.3823 4.17266C12.3823 4.43702 12.4873 4.69055 12.6743 4.87749C12.8612 5.06442 13.1147 5.16943 13.379 5.16943C13.6434 5.16943 13.8969 5.06442 14.0839 4.87749Z" fill="white"/>
</svg>
