<svg width="22" height="19" viewBox="0 0 22 19" fill="none" xmlns="http://www.w3.org/2000/svg">
<path d="M10.9999 18.75C10.8574 18.7508 10.716 18.7235 10.584 18.6695C10.4521 18.6156 10.332 18.5362 10.2308 18.4358L1.81328 10.0075C0.757418 8.94057 0.165161 7.50015 0.165161 5.99912C0.165161 4.49809 0.757418 3.05768 1.81328 1.99079C2.87739 0.929677 4.31884 0.333801 5.82161 0.333801C7.32438 0.333801 8.76583 0.929677 9.82994 1.99079L10.9999 3.16079L12.1699 1.99079C13.2341 0.929677 14.6755 0.333801 16.1783 0.333801C17.681 0.333801 19.1225 0.929677 20.1866 1.99079C21.2425 3.05768 21.8347 4.49809 21.8347 5.99912C21.8347 7.50015 21.2425 8.94057 20.1866 10.0075L11.7691 18.4358C11.6679 18.5362 11.5478 18.6156 11.4158 18.6695C11.2839 18.7235 11.1425 18.7508 10.9999 18.75ZM5.82161 2.49996C5.36301 2.49788 4.90855 2.58682 4.48457 2.76162C4.06058 2.93642 3.6755 3.19361 3.35161 3.51829C2.69734 4.17601 2.33007 5.06599 2.33007 5.99371C2.33007 6.92142 2.69734 7.81141 3.35161 8.46912L10.9999 16.1283L18.6483 8.46912C19.3025 7.81141 19.6698 6.92142 19.6698 5.99371C19.6698 5.06599 19.3025 4.17601 18.6483 3.51829C17.9806 2.88747 17.0968 2.53603 16.1783 2.53603C15.2597 2.53603 14.376 2.88747 13.7083 3.51829L11.7691 5.46829C11.6684 5.56983 11.5486 5.65042 11.4166 5.70542C11.2846 5.76042 11.143 5.78874 10.9999 5.78874C10.8569 5.78874 10.7153 5.76042 10.5833 5.70542C10.4513 5.65042 10.3315 5.56983 10.2308 5.46829L8.29161 3.51829C7.96772 3.19361 7.58264 2.93642 7.15865 2.76162C6.73467 2.58682 6.28021 2.49788 5.82161 2.49996Z" fill="#231F20"/>
</svg>
