<svg width="24" height="22" viewBox="0 0 24 22" fill="none" xmlns="http://www.w3.org/2000/svg">
<path d="M18.95 4.8V5.05H19.2H20.4C21.2885 5.05 22.1406 5.40295 22.7688 6.03119C23.3971 6.65944 23.75 7.51152 23.75 8.4V18C23.75 18.8885 23.3971 19.7406 22.7688 20.3688C22.1406 20.9971 21.2885 21.35 20.4 21.35H3.6C2.71152 21.35 1.85944 20.9971 1.23119 20.3688C0.602946 19.7406 0.25 18.8885 0.25 18V3.6C0.25 2.71152 0.602946 1.85944 1.23119 1.23119C1.85944 0.602946 2.71152 0.25 3.6 0.25H15.6C16.4885 0.25 17.3406 0.602946 17.9688 1.23119C18.5971 1.85944 18.95 2.71152 18.95 3.6V4.8ZM16.8 5.05H17.05V4.8V3.6C17.05 3.21544 16.8972 2.84662 16.6253 2.5747C16.3534 2.30277 15.9846 2.15 15.6 2.15H3.6C3.21544 2.15 2.84662 2.30277 2.5747 2.5747C2.30277 2.84662 2.15 3.21544 2.15 3.6C2.15 3.98456 2.30277 4.35338 2.5747 4.6253C2.84662 4.89723 3.21544 5.05 3.6 5.05H16.8ZM21.6 14.65H21.85V14.4V12V11.75H21.6H20.4C20.0154 11.75 19.6466 11.9028 19.3747 12.1747C19.1028 12.4466 18.95 12.8154 18.95 13.2C18.95 13.5846 19.1028 13.9534 19.3747 14.2253C19.6466 14.4972 20.0154 14.65 20.4 14.65H21.6ZM21.6 9.85H21.85V9.6V8.4C21.85 8.01544 21.6972 7.64662 21.4253 7.3747C21.1534 7.10277 20.7846 6.95 20.4 6.95L3.6 6.95L3.59963 6.95C3.21933 6.95056 2.84171 6.88637 2.48296 6.76017L2.15 6.64303V6.996V18C2.15 18.3846 2.30277 18.7534 2.5747 19.0253C2.84662 19.2972 3.21544 19.45 3.6 19.45H20.4C20.7846 19.45 21.1534 19.2972 21.4253 19.0253C21.6972 18.7534 21.85 18.3846 21.85 18V16.8V16.55H21.6H20.4C19.5115 16.55 18.6594 16.1971 18.0312 15.5688C17.4029 14.9406 17.05 14.0885 17.05 13.2C17.05 12.3115 17.4029 11.4594 18.0312 10.8312C18.6594 10.2029 19.5115 9.85 20.4 9.85H21.6Z" fill="black" stroke="white" stroke-width="0.5"/>
</svg>
