<svg width="16" height="18" viewBox="0 0 16 18" fill="none" xmlns="http://www.w3.org/2000/svg">
<path d="M14.1139 3.9994C13.996 3.93844 13.8811 3.87162 13.7699 3.79918C13.4463 3.58528 13.1497 3.33326 12.8864 3.04852C12.2274 2.29459 11.9813 1.52974 11.8907 0.994234H11.8943C11.8186 0.549739 11.8499 0.262146 11.8547 0.262146H8.8535V11.8671C8.8535 12.0229 8.8535 12.1769 8.84695 12.329C8.84695 12.348 8.84513 12.3654 8.84404 12.3858C8.84404 12.3942 8.84404 12.4029 8.84222 12.4117V12.4182C8.81058 12.8346 8.67711 13.2368 8.45353 13.5895C8.22996 13.9422 7.92314 14.2346 7.56006 14.4408C7.18166 14.6561 6.75367 14.769 6.31831 14.7685C4.92003 14.7685 3.78677 13.6283 3.78677 12.2202C3.78677 10.8121 4.92003 9.6719 6.31831 9.6719C6.583 9.67165 6.84606 9.7133 7.09773 9.79531L7.10137 6.73954C6.33738 6.64085 5.56122 6.70157 4.82187 6.91786C4.08252 7.13415 3.39602 7.50132 2.80567 7.99621C2.2884 8.44566 1.85352 8.98193 1.52061 9.58089C1.39392 9.79931 0.915934 10.677 0.858051 12.1015C0.821647 12.91 1.06446 13.7477 1.18023 14.0939V14.1012C1.25304 14.3051 1.53517 15.0007 1.99495 15.5872C2.36571 16.0576 2.80374 16.4709 3.29495 16.8137V16.8064L3.30223 16.8137C4.75512 17.8009 6.366 17.7361 6.366 17.7361C6.64486 17.7249 7.57899 17.7361 8.63981 17.2334C9.81639 16.6761 10.4862 15.8457 10.4862 15.8457C10.9142 15.3495 11.2544 14.7841 11.4924 14.1736C11.764 13.4598 11.8547 12.6035 11.8547 12.2613V6.10465C11.8911 6.12649 12.376 6.44721 12.376 6.44721C12.376 6.44721 13.0746 6.89499 14.1645 7.18658C14.9465 7.39409 16 7.43777 16 7.43777V4.45845C15.6309 4.4985 14.8813 4.38201 14.1139 3.9994Z" fill="white"/>
</svg>
