<svg width="48" height="48" viewBox="0 0 48 48" fill="none" xmlns="http://www.w3.org/2000/svg">
<g clip-path="url(#clip0_271_32)">
<path d="M24 48C37.2548 48 48 37.2548 48 24C48 10.7452 37.2548 0 24 0C10.7452 0 0 10.7452 0 24C0 37.2548 10.7452 48 24 48Z" fill="#010201"/>
<path d="M17.5932 33.6319C17.6217 33.6568 17.6501 33.6852 17.6786 33.7101C17.9452 33.8986 18.1372 34.1688 18.3897 34.3715C19.179 35.0044 20.0679 35.3492 21.0848 35.4132C23.4955 35.5626 25.5968 33.7492 25.8706 31.3635C25.8848 31.2461 25.8777 31.1288 25.8777 31.0115C25.8777 23.8328 25.8777 16.6541 25.8777 9.47191C25.8777 8.98835 25.8777 8.98835 26.3612 8.98835C27.4528 8.98835 28.5443 8.98835 29.6359 8.98835C29.739 8.98835 29.8457 8.97057 29.9381 9.03457C29.9452 9.04168 29.9488 9.04524 29.9559 9.0488C30.0092 9.10213 30.0235 9.17324 30.0377 9.2408C30.4572 11.175 31.4741 12.7181 33.0706 13.8844C33.1701 13.9555 33.2555 14.0479 33.3479 14.1261C33.419 14.1866 33.4866 14.2435 33.5577 14.3039C33.8137 14.4497 33.9986 14.6844 34.2226 14.8728C35.1044 15.6088 36.1035 16.1172 37.2164 16.4017C37.3159 16.4266 37.4261 16.4266 37.4972 16.519C37.5008 16.5261 37.5079 16.5297 37.515 16.5332C37.579 16.6008 37.5684 16.6897 37.5684 16.7715C37.5684 18.0372 37.5719 19.303 37.5684 20.5688C37.5684 20.8568 37.5292 20.8746 37.2377 20.8746C36.3097 20.8746 35.3995 20.7501 34.4999 20.5439C32.9497 20.1884 31.5203 19.559 30.1941 18.6879C30.1266 18.6417 30.0519 18.5457 29.9772 18.5777C29.8848 18.6204 29.931 18.7412 29.931 18.8266C29.9275 22.3892 29.9452 25.9519 29.9239 29.5181C29.9097 32.0106 29.1168 34.2399 27.4848 36.135C25.7532 38.151 23.5524 39.3208 20.9106 39.6444C18.8732 39.8932 16.9426 39.5235 15.1079 38.6204C14.8128 38.4746 14.5284 38.3039 14.2617 38.1048C14.1764 38.0301 14.0946 37.9555 14.0092 37.8808C13.3764 37.3581 12.939 36.6826 12.5266 35.9928C11.8937 34.9261 11.4848 33.7741 11.2857 32.551C11.1719 31.8506 11.1115 31.1466 11.1506 30.439C11.275 28.1564 12.043 26.1226 13.515 24.3626C14.7488 22.887 16.2919 21.8559 18.1088 21.2337C18.8661 20.9741 19.6484 20.8141 20.4519 20.7572C20.6012 20.7466 20.747 20.711 20.8963 20.7217C20.9675 20.7252 21.0386 20.7181 21.1026 20.7679C21.1097 20.775 21.1168 20.7786 21.1239 20.7821C21.1666 20.8532 21.1559 20.935 21.1559 21.0097C21.1559 22.2932 21.1559 23.5804 21.1559 24.8639C21.1559 24.9101 21.1559 24.9564 21.1524 24.999C21.1452 25.127 21.0812 25.1697 20.9604 25.1377C20.6084 25.0381 20.2492 24.9919 19.8866 24.9741C19.3248 24.9457 18.7701 25.0239 18.2403 25.2195C16.4732 25.8701 15.403 27.1359 15.179 28.999C14.9586 30.8337 15.6839 32.3021 17.2092 33.3617C17.3444 33.4506 17.4759 33.5324 17.5932 33.6319Z" fill="white"/>
<path d="M14.2686 38.1084C14.3361 38.0906 14.3752 38.144 14.4214 38.1724C15.5699 38.8729 16.8072 39.3315 18.137 39.5449C18.8054 39.6515 19.4774 39.6978 20.153 39.6622C22.4108 39.5449 24.4339 38.7946 26.1832 37.3475C27.865 35.9573 28.985 34.2009 29.5432 32.0924C29.721 31.4275 29.817 30.7484 29.8526 30.0586C29.8739 29.664 29.8703 29.2658 29.8703 28.8711C29.8703 25.4755 29.8703 22.08 29.8703 18.6844C29.8703 18.6062 29.8703 18.5315 29.8703 18.4533C29.9592 18.4284 29.9983 18.496 30.0481 18.528C31.257 19.3564 32.5654 19.968 33.9806 20.3591C34.7557 20.5724 35.545 20.7146 36.3486 20.7858C36.6863 20.8142 37.0241 20.8106 37.3583 20.8355C37.5041 20.8462 37.5077 20.8391 37.5112 20.6862C37.5148 20.5226 37.5112 20.3626 37.5112 20.1991C37.5112 19.0506 37.5112 17.9022 37.5112 16.7502C37.5112 16.6791 37.5148 16.608 37.5183 16.5369C37.8206 16.5724 38.1192 16.6364 38.425 16.6578C38.6134 16.672 38.8019 16.6898 38.9903 16.6826C39.0828 16.6791 39.1219 16.7111 39.1112 16.8071C39.1077 16.8462 39.1112 16.8853 39.1112 16.9244C39.1112 18.5849 39.1112 20.2489 39.1112 21.9093C39.1112 21.9413 39.1112 21.9733 39.1112 22.0053C39.1077 22.1511 39.1077 22.1546 38.9548 22.1511C38.4357 22.1511 37.9166 22.1155 37.401 22.048C36.3486 21.9093 35.3246 21.6498 34.3361 21.2658C33.3903 20.896 32.4979 20.4266 31.6588 19.8506C31.6054 19.8151 31.5521 19.7831 31.4739 19.7298C31.4739 19.8258 31.4739 19.8933 31.4739 19.9644C31.4739 23.5946 31.4774 27.2213 31.4739 30.8515C31.4703 32.7858 30.9726 34.5849 29.9379 36.224C28.6899 38.2044 26.9619 39.5946 24.7646 40.3946C23.4312 40.8782 22.0481 41.0666 20.6294 40.96C18.2366 40.7822 16.1672 39.8684 14.4037 38.2471C14.3539 38.208 14.3148 38.1582 14.2686 38.1084Z" fill="#CB1C54"/>
<path d="M29.9415 9.03461C29.8704 9.03816 29.7993 9.04527 29.7282 9.04527C28.5584 9.04527 27.3887 9.04527 26.2224 9.04527C25.9522 9.04527 25.9522 9.04527 25.9522 9.30838C25.9522 16.4515 25.9522 23.5911 25.9558 30.7342C25.9558 31.2319 25.9202 31.7191 25.7638 32.1919C25.2162 33.8631 24.0927 34.9653 22.3789 35.3564C20.5407 35.7759 18.9798 35.2142 17.7353 33.7884C17.714 33.7635 17.6998 33.7351 17.6855 33.7066C18.0411 33.8488 18.3967 33.9911 18.7735 34.0657C19.9718 34.3039 21.1024 34.1191 22.1407 33.4791C23.3424 32.7395 24.05 31.6551 24.2989 30.2719C24.3451 30.0088 24.3522 29.7422 24.3522 29.4755C24.3522 22.3217 24.3522 15.1644 24.3522 8.01061C24.3522 7.67638 24.306 7.71905 24.6367 7.71905C26.2864 7.71905 27.9362 7.71905 29.586 7.71905C29.6251 7.71905 29.6642 7.71905 29.7033 7.71905C29.8704 7.72261 29.874 7.72261 29.874 7.89327C29.8704 8.27727 29.8633 8.65772 29.9415 9.03461Z" fill="#6ABAC5"/>
<path d="M21.1093 20.7716C20.1031 20.8036 19.1146 20.9636 18.1582 21.2836C16.7751 21.7422 15.5449 22.464 14.4711 23.4524C13.0631 24.7502 12.1031 26.3218 11.5769 28.16C11.3884 28.8142 11.2817 29.4862 11.232 30.1653C11.2035 30.5742 11.1929 30.9831 11.2177 31.3884C11.2782 32.5227 11.5129 33.6178 11.9431 34.6702C12.4231 35.8471 13.0986 36.8996 13.9769 37.8204C13.9946 37.8382 14.0053 37.8631 14.0195 37.8844C13.8204 37.7991 13.6604 37.6533 13.4933 37.5218C11.8577 36.224 10.7022 34.5884 10.0693 32.5938C9.84886 31.9004 9.71019 31.1893 9.64263 30.464C9.59286 29.9378 9.5893 29.4116 9.6213 28.8889C9.69952 27.68 9.98752 26.5209 10.4853 25.4151C11.008 24.2596 11.7191 23.2356 12.6222 22.3502C13.6746 21.3191 14.8942 20.544 16.2844 20.0462C17.1555 19.7333 18.0515 19.5413 18.976 19.4738C19.6444 19.424 20.3093 19.4382 20.9777 19.52C21.0666 19.5307 21.12 19.5484 21.12 19.6551C21.1093 20.032 21.1093 20.4018 21.1093 20.7716Z" fill="#6ABAC5"/>
<path d="M17.5931 33.632C17.1877 33.4471 16.8357 33.184 16.5157 32.8782C15.7157 32.1066 15.2393 31.168 15.1148 30.0622C14.8553 27.744 16.3166 25.7458 18.3468 25.1271C19.2144 24.864 20.0819 24.8533 20.9531 25.088C21.0028 25.1022 21.0491 25.1235 21.1024 25.1093C21.1308 25.0382 21.1166 24.9671 21.1166 24.896C21.1166 23.5982 21.1166 22.3004 21.1166 21.0026C21.1166 20.9315 21.1237 20.8604 21.1273 20.7893C21.6286 20.7538 22.1264 20.8 22.6206 20.8569C22.6988 20.864 22.7202 20.9031 22.7166 20.9706C22.7166 21.0098 22.7166 21.0489 22.7166 21.088C22.7166 22.8089 22.7166 24.5298 22.7166 26.2471C22.7166 26.3111 22.7344 26.3751 22.6917 26.4462C22.4642 26.4035 22.2437 26.336 22.0126 26.304C20.6828 26.1191 19.4846 26.4284 18.4322 27.2569C17.5077 27.9858 16.9388 28.9422 16.7468 30.1013C16.5442 31.3315 16.8002 32.4729 17.5077 33.5075C17.5433 33.5431 17.5682 33.5893 17.5931 33.632Z" fill="#CB1C54"/>
<path d="M33.3542 14.1297C32.8528 13.8346 32.4155 13.4613 32.0137 13.0453C30.9328 11.9324 30.2502 10.6133 29.9586 9.08795C29.9551 9.07373 29.9586 9.06306 29.9586 9.04884C30.4244 9.02395 30.8937 9.04528 31.3595 9.03817C31.4413 9.03817 31.4804 9.07017 31.4697 9.15195C31.4662 9.18395 31.4697 9.21595 31.4697 9.24795C31.4448 10.5564 31.8324 11.7511 32.4724 12.8746C32.6999 13.2764 32.9737 13.6462 33.2688 14.0017C33.3008 14.0444 33.3471 14.0728 33.3542 14.1297Z" fill="#CB1C54"/>
<path d="M37.5001 16.5227C36.1703 16.2382 35.0005 15.6373 33.9837 14.7342C33.8343 14.6027 33.6814 14.4711 33.5605 14.3076C33.6103 14.304 33.6459 14.3324 33.685 14.3538C34.4921 14.816 35.3525 15.1182 36.2699 15.2676C36.6254 15.328 36.9881 15.3636 37.3508 15.36C37.5037 15.36 37.5072 15.3636 37.5072 15.5093C37.5072 15.8507 37.5037 16.1849 37.5001 16.5227Z" fill="#6ABAC5"/>
</g>
<defs>
<clipPath id="clip0_271_32">
<rect width="48" height="48" fill="white"/>
</clipPath>
</defs>
</svg>
