<svg width="21" height="24" viewBox="0 0 21 24" fill="none" xmlns="http://www.w3.org/2000/svg">
<path d="M10.084 0.125962C10.3359 -0.0419874 10.6641 -0.0419874 10.916 0.125962C13.8233 2.06415 16.9675 3.27346 20.3561 3.75754C20.7256 3.81032 21 4.12676 21 4.5V11.25C21 17.087 17.5395 21.3461 10.7692 23.95C10.5959 24.0167 10.4041 24.0167 10.2308 23.95C3.46049 21.3461 0 17.087 0 11.25V4.5C0 4.12676 0.274447 3.81032 0.643934 3.75754C4.0325 3.27346 7.17669 2.06415 10.084 0.125962ZM9.8987 2.01874C7.27912 3.59409 4.47812 4.63582 1.5 5.1418V11.25C1.5 16.3381 4.45192 20.0451 10.5 22.4448C16.5481 20.0451 19.5 16.3381 19.5 11.25V5.1418C16.5219 4.63582 13.7209 3.59409 11.1013 2.01874L10.5 1.64572L9.8987 2.01874Z" fill="#212121"/>
</svg>
