<svg width="20" height="22" viewBox="0 0 20 22" fill="none" xmlns="http://www.w3.org/2000/svg">
<path d="M4.09091 1.66818H3.99062L3.95229 1.76086L2.58866 5.0587L2.50293 5.26601H2.72727H9.09091H9.24091V5.11601V1.81818V1.66818H9.09091H4.09091ZM10.9091 1.66818H10.7591V1.81818V5.11601V5.26601H10.9091H17.2727H17.4971L17.4113 5.0587L16.0477 1.76086L16.0094 1.66818H15.9091H10.9091ZM1.81818 6.7842H1.66818V6.9342V19.6615V19.8115H1.81818H18.1818H18.3318V19.6615V6.9342V6.7842H18.1818H1.81818ZM7.27273 10.4206V10.4199L7.25896 10.4212C6.84014 10.4598 6.46628 10.1505 6.42778 9.73292C6.38936 9.3163 6.69519 8.94417 7.10948 8.90238H7.1096H7.10976H7.10993H7.1101H7.11026H7.11043H7.1106H7.11076H7.11093H7.11109H7.11126H7.11143H7.11159H7.11176H7.11193H7.11209H7.11226H7.11243H7.11259H7.11276H7.11293H7.11309H7.11326H7.11343H7.11359H7.11376H7.11392H7.11409H7.11426H7.11442H7.11459H7.11476H7.11492H7.11509H7.11526H7.11542H7.11559H7.11576H7.11592H7.11609H7.11626H7.11642H7.11659H7.11675H7.11692H7.11709H7.11725H7.11742H7.11759H7.11775H7.11792H7.11809H7.11825H7.11842H7.11859H7.11875H7.11892H7.11909H7.11925H7.11942H7.11958H7.11975H7.11992H7.12008H7.12025H7.12042H7.12058H7.12075H7.12092H7.12108H7.12125H7.12142H7.12158H7.12175H7.12191H7.12208H7.12225H7.12241H7.12258H7.12275H7.12291H7.12308H7.12325H7.12341H7.12358H7.12375H7.12391H7.12408H7.12425H7.12441H7.12458H7.12474H7.12491H7.12508H7.12524H7.12541H7.12558H7.12574H7.12591H7.12608H7.12624H7.12641H7.12658H7.12674H7.12691H7.12708H7.12724H7.12741H7.12757H7.12774H7.12791H7.12807H7.12824H7.12841H7.12857H7.12874H7.12891H7.12907H7.12924H7.12941H7.12957H7.12974H7.12991H7.13007H7.13024H7.1304H7.13057H7.13074H7.1309H7.13107H7.13124H7.1314H7.13157H7.13174H7.1319H7.13207H7.13224H7.1324H7.13257H7.13273H7.1329H7.13307H7.13323H7.1334H7.13357H7.13373H7.1339H7.13407H7.13423H7.1344H7.13457H7.13473H7.1349H7.13507H7.13523H7.1354H7.13556H7.13573H7.1359H7.13606H7.13623H7.1364H7.13656H7.13673H7.1369H7.13706H7.13723H7.1374H7.13756H7.13773H7.1379H7.13806H7.13823H7.13839H7.13856H7.13873H7.13889H7.13906H7.13923H7.13939H7.13956H7.13973H7.13989H7.14006H7.14023H7.14039H7.14056H7.14073H7.14089H7.14106H7.14122H7.14139H7.14156H7.14172H7.14189H7.14206H7.14222H7.14239H7.14256H7.14272H7.14289H7.14306H7.14322H7.14339H7.14355H7.14372H7.14389H7.14405H7.14422H7.14439H7.14455H7.14472H7.14489H7.14505H7.14522H7.14539H7.14555H7.14572H7.14588H7.14605H7.14622H7.14638H7.14655H7.14672H7.14688H7.14705H7.14722H7.14738H7.14755H7.14772H7.14788H7.14805H7.14822H7.14838H7.14855H7.14872H7.14888H7.14905H7.14921H7.14938H7.14955H7.14971H7.14988H7.15005H7.15021H7.15038H7.15055H7.15071H7.15088H7.15105H7.15121H7.15138H7.15155H7.15171H7.15188H7.15204H7.15221H7.15238H7.15254H7.15271H7.15288H7.15304H7.15321H7.15338H7.15354H7.15371H7.15388H7.15404H7.15421H7.15437H7.15454H7.15471H7.15487H7.15504H7.15521H7.15537H7.15554H7.15571H7.15587H7.15604H7.15621H7.15637H7.15654H7.1567H7.15687H7.15704H7.1572H7.15737H7.15754H7.1577H7.15787H7.15804H7.1582H7.15837H7.15854H7.1587H7.15887H7.15904H7.1592H7.15937H7.15953H7.1597H7.15987H7.16003H7.1602H7.16037H7.16053H7.1607H7.16087H7.16103H7.1612H7.16137H7.16153H7.1617H7.16187H7.16203H7.1622H7.16236H7.16253H7.1627H7.16286H7.16303H7.1632H7.16336H7.16353H7.1637H7.16386H7.16403H7.1642H7.16436H7.16453H7.1647H7.16486H7.16503H7.16519H7.16536H7.16553H7.16569H7.16586H7.16603H7.16619H7.16636H7.16653H7.16669H7.16686H7.16703H7.16719H7.16736H7.16752H7.16769H7.16786H7.16802H7.16819H7.16836H7.16852H7.16869H7.16886H7.16902H7.16919H7.16936H7.16952H7.16969H7.16986H7.17002H7.17019H7.17035H7.17052H7.17069H7.17085H7.17102H7.17119H7.17135H7.17152H7.17169H7.17185H7.17202H7.17219H7.17235H7.17252H7.17269H7.17285H7.17302H7.17318H7.17335H7.17352H7.17368H7.17385H7.17402H7.17418H7.17435H7.17452H7.17468H7.17485H7.17502H7.17518H7.17535H7.17552H7.17568H7.17585H7.17601H7.17618H7.17635H7.17651H7.17668H7.17685H7.17701H7.17718H7.17735H7.17751H7.17768H7.17785H7.17801H7.17818H7.17834H7.17851H7.17868H7.17884H7.17901H7.17918H7.17934H7.17951H7.17968H7.17984H7.18001H7.18018H7.18034H7.18051H7.18068H7.18084H7.18101H7.18117H7.18134H7.18151H7.18167H7.18184H7.18201H7.18217H7.18234H7.18251H7.18267H7.18284H7.18301H7.18317H7.18334H7.18351H7.18367H7.18384H7.184H7.18417H7.18434H7.1845H7.18467H7.18484H7.185H7.18517H7.18534H7.1855H7.18567H7.18584H7.186H7.18617H7.18633H7.1865H7.18667H7.18683H7.187H7.18717H7.18733H7.1875H7.18767H7.18783H7.188H7.18817H7.18833H7.1885H7.18867H7.18883H7.189H7.18916H7.18933H7.1895H7.18966H7.18983H7.19H7.19016H7.19033H7.1905H7.19066H7.19083H7.191H7.19116H7.19133H7.19149H7.19166H7.19183H7.19199H7.19216H7.19233H7.19249H7.19266H7.19283H7.19299H7.19316H7.19333H7.19349H7.19366H7.19383H7.19399H7.19416H7.19432H7.19449H7.19466H7.19482H7.19499H7.19516H7.19532H7.19549H7.19566H7.19582H7.19599H7.19616H7.19632H7.19649H7.19666H7.19682H7.19699H7.19715H7.19732H7.19749H7.19765H7.19782H7.19799H7.19815H7.19832H7.19849H7.19865H7.19882H7.19899H7.19915H7.19932H7.19948H7.19965H7.19982H7.19998H7.20015H7.20032H7.20048H7.20065H7.20082H7.20098H7.20115H7.20132H7.20148H7.20165H7.20182H7.20198H7.20215H7.20231H7.20248H7.20265H7.20281H7.20298H7.20315H7.20331H7.20348H7.20365H7.20381H7.20398H7.20415H7.20431H7.20448H7.20465H7.20481H7.20498H7.20514H7.20531H7.20548H7.20564H7.20581H7.20598H7.20614H7.20631H7.20648H7.20664H7.20681H7.20698H7.20714H7.20731H7.20748H7.20764H7.20781H7.20797H7.20814H7.20831H7.20847H7.20864H7.20881H7.20897H7.20914H7.20931H7.20947H7.20964H7.20981H7.20997H7.21014H7.2103H7.21047H7.21064H7.2108H7.21097H7.21114H7.2113H7.21147H7.21164H7.2118H7.21197H7.21214H7.2123H7.21247H7.21264H7.2128H7.21297H7.21313H7.2133H7.21347H7.21363H7.2138H7.21397H7.21413H7.2143H7.21447H7.21463H7.2148H7.21497H7.21513H7.2153H7.21547H7.21563H7.2158H7.21596H7.21613H7.2163H7.21646H7.21663H7.2168H7.21696H7.21713H7.2173H7.21746H7.21763H7.2178H7.21796H7.21813H7.2183H7.21846H7.21863H7.21879H7.21896H7.21913H7.21929H7.21946H7.21963H7.21979H7.21996H7.22013H7.22029H7.22046H7.22063H7.22079H7.22096H7.22112H7.22129H7.22146H7.22162H7.22179H7.22196H7.22212H7.22229H7.22246H7.22262H7.22279H7.22296H7.22312H7.22329H7.22345H7.22362H7.22379H7.22395H7.22412H7.22429H7.22445H7.22462H7.22479H7.22495H7.22512H7.22529H7.22545H7.22562H7.22579H7.22595H7.22612H7.22628H7.22645H7.22662H7.22678H7.22695H7.22712H7.22728H7.22745H7.22762H7.22778H7.22795H7.22812H7.22828H7.22845H7.22862H7.22878H7.22895H7.22911H7.22928H7.22945H7.22961H7.22978H7.22995H7.23011H7.23028H7.23045H7.23061H7.23078H7.23095H7.23111H7.23128H7.23145H7.23161H7.23178H7.23194H7.23211H7.23228H7.23244H7.23261H7.23278H7.23294H7.23311H7.23328H7.23344H7.23361H7.23378H7.23394H7.23411H7.23427H7.23444H7.23461H7.23477H7.23494H7.23511H7.23527H7.23544H7.23561H7.23577H7.23594H7.23611H7.23627H7.23644H7.23661H7.23677H7.23694H7.2371H7.23727H7.23744H7.2376H7.23777H7.23794H7.2381H7.23827H7.23844H7.2386H7.23877H7.23894H7.2391H7.23927H7.23944H7.2396H7.23977H7.23993H7.2401H7.24027H7.24043H7.2406H7.24077H7.24093H7.2411H7.24127H7.24143H7.2416H7.24177H7.24193H7.2421H7.24227H7.24243H7.2426H7.24276H7.24293H7.2431H7.24326H7.24343H7.2436H7.24376H7.24393H7.2441H7.24426H7.24443H7.2446H7.24476H7.24493H7.24509H7.24526H7.24543H7.24559H7.24576H7.24593H7.24609H7.24626H7.24643H7.24659H7.24676H7.24693H7.24709H7.24726H7.24743H7.24759H7.24776H7.24792H7.24809H7.24826H7.24842H7.24859H7.24876H7.24892H7.24909H7.24926H7.24942H7.24959H7.24976H7.24992H7.25009H7.25026H7.25042H7.25059H7.25075H7.25092H7.25109H7.25125H7.25142H7.25159H7.25175H7.25192H7.25209H7.25225H7.25242H7.25259H7.25275H7.25292H7.25308H7.25325H7.25342H7.25358H7.25375H7.25392H7.25408H7.25425H7.25442H7.25458H7.25475H7.25492H7.25508H7.25525H7.25542H7.25558H7.25575H7.25591H7.25608H7.25625H7.25641H7.25658H7.25675H7.25691H7.25708H7.25725H7.25741H7.25758H7.25775H7.25791H7.25808H7.25824H7.25841H7.25858H7.25874H7.25891H7.25908H7.25924H7.25941H7.25958H7.25974H7.25991H7.26008H7.26024H7.26041H7.26058H7.26074H7.26091H7.26108H7.26124H7.26141H7.26157H7.26174H7.26191H7.26207H7.26224H7.26241H7.26257H7.26274H7.26291H7.26307H7.26324H7.26341H7.26357H7.26374H7.2639H7.26407H7.26424H7.2644H7.26457H7.26474H7.2649H7.26507H7.26524H7.2654H7.26557H7.26574H7.2659H7.26607H7.26623H7.2664H7.26657H7.26673H7.2669H7.26707H7.26723H7.2674H7.26757H7.26773H7.2679H7.26807H7.26823H7.2684H7.26857H7.26873H7.2689H7.26906H7.26923H7.2694H7.26956H7.26973H7.2699H7.27006H7.27023H7.2704H7.27056H7.27073H7.2709H7.27106H7.27123H7.2714H7.27156H7.27173H7.27189H7.27206H7.27223H7.27239H7.27256H7.27273L12.7273 8.90239L12.7289 8.90237C13.002 8.8994 13.257 9.04172 13.3966 9.2787C13.5329 9.51621 13.5329 9.80673 13.3966 10.0442C13.257 10.2812 13.002 10.4235 12.7289 10.4206V10.4206H12.7273H7.27273ZM0.15 5.75066L3.0239 0.451317L3.25568 0.15H16.7443L16.9761 0.451317L19.85 5.75066V21.3297H0.15V5.75066Z" fill="black" stroke="white" stroke-width="0.3"/>
</svg>
