<svg width="26" height="26" viewBox="0 0 26 26" fill="none" xmlns="http://www.w3.org/2000/svg">
<path d="M21.7967 7.26917L18.7308 4.20333C18.1219 3.59367 17.2958 3.25076 16.4342 3.25H9.56583C8.70417 3.25076 7.87808 3.59367 7.26917 4.20333L4.20333 7.26917C3.59367 7.87808 3.25076 8.70417 3.25 9.56583V19.5C3.25 20.362 3.59241 21.1886 4.2019 21.7981C4.8114 22.4076 5.63805 22.75 6.5 22.75H19.5C20.362 22.75 21.1886 22.4076 21.7981 21.7981C22.4076 21.1886 22.75 20.362 22.75 19.5V9.56583C22.7492 8.70417 22.4063 7.87808 21.7967 7.26917ZM8.79667 5.73083C9.00427 5.53287 9.279 5.42066 9.56583 5.41667H16.4342C16.721 5.42066 16.9957 5.53287 17.2033 5.73083L19.0558 7.58333H6.94417L8.79667 5.73083ZM19.5 20.5833H6.5C6.21268 20.5833 5.93713 20.4692 5.73397 20.266C5.5308 20.0629 5.41667 19.7873 5.41667 19.5V9.75H20.5833V19.5C20.5833 19.7873 20.4692 20.0629 20.266 20.266C20.0629 20.4692 19.7873 20.5833 19.5 20.5833Z" fill="#231F20"/>
<path d="M16.2499 11.9167C15.9626 11.9167 15.687 12.0309 15.4839 12.234C15.2807 12.4372 15.1666 12.7127 15.1666 13.0001C15.1666 13.5747 14.9383 14.1258 14.532 14.5321C14.1256 14.9384 13.5745 15.1667 12.9999 15.1667C12.4253 15.1667 11.8742 14.9384 11.4678 14.5321C11.0615 14.1258 10.8332 13.5747 10.8332 13.0001C10.8332 12.7127 10.7191 12.4372 10.5159 12.234C10.3128 12.0309 10.0372 11.9167 9.7499 11.9167C9.46258 11.9167 9.18703 12.0309 8.98387 12.234C8.7807 12.4372 8.66656 12.7127 8.66656 13.0001C8.66656 14.1493 9.12311 15.2515 9.93577 16.0642C10.7484 16.8768 11.8506 17.3334 12.9999 17.3334C14.1492 17.3334 15.2514 16.8768 16.064 16.0642C16.8767 15.2515 17.3332 14.1493 17.3332 13.0001C17.3332 12.7127 17.2191 12.4372 17.0159 12.234C16.8128 12.0309 16.5372 11.9167 16.2499 11.9167Z" fill="#231F20"/>
</svg>
