<svg width="16" height="15" viewBox="0 0 16 15" fill="none" xmlns="http://www.w3.org/2000/svg">
<path d="M4.60624 14.4574C5.89695 14.5006 7.18322 14.2846 8.38903 13.8222C9.59484 13.3599 10.6957 12.6604 11.6266 11.7653C12.5575 10.8702 13.2996 9.79761 13.8089 8.61085C14.3182 7.42409 14.5844 6.14728 14.5919 4.85587C15.1834 4.1239 15.6226 3.28107 15.8837 2.37693C15.9032 2.30549 15.9016 2.22995 15.8792 2.15939C15.8567 2.08882 15.8144 2.02626 15.7572 1.97922C15.7 1.93218 15.6304 1.90267 15.5569 1.89425C15.4833 1.88583 15.4089 1.89886 15.3425 1.93176C15.0331 2.08072 14.6847 2.12884 14.3465 2.06933C14.0082 2.00983 13.6972 1.8457 13.4571 1.60007C13.1507 1.26452 12.7801 0.993893 12.3671 0.804216C11.9542 0.614539 11.5074 0.509675 11.0532 0.495837C10.599 0.482 10.1467 0.559471 9.72295 0.723659C9.29924 0.887847 8.9128 1.13541 8.58652 1.45169C8.13979 1.88433 7.81257 2.42519 7.63668 3.02169C7.46079 3.6182 7.4422 4.25006 7.58273 4.85587C4.65862 5.03045 2.65102 3.64259 1.04494 1.73973C0.996691 1.68509 0.933574 1.64568 0.863299 1.62632C0.793023 1.60696 0.71863 1.60848 0.649203 1.63069C0.579777 1.65291 0.518322 1.69486 0.472344 1.75143C0.426365 1.80799 0.397853 1.87672 0.390289 1.94922C0.0843216 3.64645 0.305035 5.39666 1.02279 6.96479C1.74054 8.53291 2.92095 9.84386 4.40548 10.7216C3.4101 11.8631 2.01226 12.5761 0.503762 12.7117C0.422945 12.7251 0.34834 12.7634 0.29039 12.8213C0.23244 12.8792 0.194044 12.9538 0.180577 13.0346C0.167109 13.1154 0.179243 13.1984 0.215282 13.272C0.25132 13.3456 0.309458 13.406 0.38156 13.4449C1.69394 14.1007 3.13915 14.4471 4.60624 14.4574Z" fill="white"/>
</svg>
