<svg width="18" height="20" viewBox="0 0 18 20" fill="none" xmlns="http://www.w3.org/2000/svg">
<path d="M9 0.944458C6.243 0.944458 4 3.18746 4 5.94446C4 8.70146 6.243 10.9445 9 10.9445C11.757 10.9445 14 8.70146 14 5.94446C14 3.18746 11.757 0.944458 9 0.944458ZM9 8.94446C7.346 8.94446 6 7.59846 6 5.94446C6 4.29046 7.346 2.94446 9 2.94446C10.654 2.94446 12 4.29046 12 5.94446C12 7.59846 10.654 8.94446 9 8.94446ZM18 19.9445V18.9445C18 15.0855 14.859 11.9445 11 11.9445H7C3.14 11.9445 0 15.0855 0 18.9445V19.9445H2V18.9445C2 16.1875 4.243 13.9445 7 13.9445H11C13.757 13.9445 16 16.1875 16 18.9445V19.9445H18Z" fill="black"/>
</svg>
